#!OML:ASF X:\für Bonn\!DataBase\2005_08_12_Daniel\c3d\Daniel.ASF
:FULLY-SPECIFIED
:DEGREES
139
root 2.16235 16.6366 1.90714 -542.251 12.6595 -524.604
lowerback 15.3439 -5.26566 9.82066
upperback 4.02297 -4.71196 1.98331
thorax -4.91843 -2.13244 -2.48865
lowerneck -2.78107 12.1891 2.13686
upperneck -5.59536 16.6582 -16.4631
head 0.415329 8.6944 -4.83632
rclavicle 4.86029e-014 -2.22639e-014
rhumerus -65.1946 6.65686 -84.6805
rradius 66.3219
rwrist 0.495255
rhand -27.5754 32.1228
rfingers 7.12502
rthumb -0.975816 2.14532
lclavicle 4.86029e-014 -2.22639e-014
lhumerus -60.9457 -5.72038 97.2455
lradius 105.123
lwrist 11.9571
lhand -6.59721 -12.136
lfingers 7.12502
lthumb 19.2582 16.9305
rfemur -15.3931 11.9135 24.777
rtibia 39.4685
rfoot -15.6557 -0.381672
rtoes -24.9808
lfemur -1.09128 3.90098 -13.8085
ltibia 91.4245
lfoot -2.42429 -0.501388
ltoes -1.90383
140
root 2.25446 16.5105 1.65791 -542.607 12.1788 -524.508
lowerback 15.7664 -5.13754 10.0079
upperback 4.06053 -4.42627 2.04868
thorax -5.08178 -1.98469 -2.56
lowerneck -2.49947 12.0185 2.47788
upperneck -5.86046 16.407 -16.7707
head 0.326283 8.59992 -5.01461
rclavicle 4.96962e-016 -2.06736e-014
rhumerus -63.8569 6.13178 -84.4146
rradius 66.5503
rwrist 0.989382
rhand -27.6635 32.1038
rfingers 7.12502
rthumb -1.06095 2.12674
lclavicle 4.96962e-016 -2.06736e-014
lhumerus -61.0774 -4.5114 97.0678
lradius 103.333
lwrist 12.2937
lhand -6.03378 -10.8728
lfingers 7.12502
lthumb 19.7999 18.1387
rfemur -14.584 11.3876 25.0754
rtibia 40.8388
rfoot -18.3705 0.314613
rtoes -25.3823
lfemur -2.98488 4.41489 -12.9145
ltibia 94.609
lfoot -2.73728 -1.14173
ltoes -0.320719
141
root 2.34204 16.3921 1.4127 -542.936 11.7187 -524.408
lowerback 16.1943 -4.99526 10.2137
upperback 4.08168 -4.11834 2.09669
thorax -5.26387 -1.82904 -2.66706
lowerneck -2.28985 11.835 2.79143
upperneck -6.07458 16.1481 -17.0615
head 0.257931 8.4971 -5.17823
rclavicle -4.07509e-015 1.98785e-014
rhumerus -62.7083 5.79053 -84.3997
rradius 66.9881
rwrist 1.15129
rhand -27.9583 31.9543
rfingers 7.12502
rthumb -1.34562 1.97877
lclavicle -4.07509e-015 1.98785e-014
lhumerus -61.4027 -3.40305 96.8811
lradius 101.71
lwrist 12.608
lhand -5.97929 -9.50439
lfingers 7.12502
lthumb 19.8523 19.5017
rfemur -13.6515 10.8058 25.4022
rtibia 41.9049
rfoot -20.6681 0.886962
rtoes -25.5659
lfemur -4.99814 5.00855 -12.0126
ltibia 97.5776
lfoot -3.02478 -1.90922
ltoes 0.8609
142
root 2.42442 16.2947 1.16634 -543.215 11.2708 -524.302
lowerback 16.597 -4.84438 10.3935
upperback 4.07855 -3.80512 2.15921
thorax -5.45342 -1.67348 -2.74925
lowerneck -2.29044 11.6686 2.56964
upperneck -6.1935 15.9275 -16.9816
head 0.17608 8.40504 -5.1424
rclavicle -1.89839e-014 -6.67916e-014
rhumerus -61.6884 5.71842 -84.5923
rradius 67.6067
rwrist 0.966056
rhand -28.3957 31.5744
rfingers 7.12502
rthumb -1.76808 1.60195
lclavicle -1.89839e-014 -6.67916e-014
lhumerus -61.9484 -2.39111 96.7501
lradius 100.301
lwrist 12.9281
lhand -6.41673 -8.36439
lfingers 7.12502
lthumb 19.4317 20.6847
rfemur -12.5654 10.2041 25.7366
rtibia 42.6377
rfoot -22.6671 1.37648
rtoes -25.2902
lfemur -7.0767 5.63812 -11.1624
ltibia 100.227
lfoot -3.37437 -2.69235
ltoes 1.13502
143
root 2.50096 16.2256 0.916103 -543.441 10.8453 -524.211
lowerback 16.9493 -4.65255 10.5504
upperback 4.0506 -3.45033 2.22243
thorax -5.6345 -1.50086 -2.83271
lowerneck -2.40054 11.4755 1.97345
upperneck -6.23663 15.6872 -16.6742
head 0.0821888 8.30003 -4.97987
rclavicle -3.50855e-014 2.38542e-014
rhumerus -60.6082 5.72064 -84.8842
rradius 68.3155
rwrist 0.627433
rhand -28.856 31.007
rfingers 7.12502
rthumb -2.21268 1.03877
lclavicle -3.50855e-014 2.38542e-014
lhumerus -62.7273 -1.5567 96.6949
lradius 99.1378
lwrist 13.1955
lhand -7.27463 -7.7346
lfingers 7.12502
lthumb 18.6067 21.3955
rfemur -11.3456 9.65754 26.0478
rtibia 43.0459
rfoot -24.3833 1.75664
rtoes -24.9492
lfemur -9.1753 6.30162 -10.4434
ltibia 102.462
lfoot -3.797 -3.42763
ltoes 0.811736
144
root 2.57226 16.1712 0.665855 -543.674 10.444 -524.137
lowerback 17.3163 -4.43893 10.64
upperback 4.0039 -3.07706 2.28792
thorax -5.83664 -1.32188 -2.88261
lowerneck -2.40303 11.2963 1.47946
upperneck -6.28173 15.4632 -16.4329
head -0.012183 8.20586 -4.85598
rclavicle -2.46493e-014 1.35174e-014
rhumerus -59.481 5.80591 -85.2604
rradius 69.156
rwrist 0.327868
rhand -29.2401 30.3391
rfingers 7.12502
rthumb -2.5836 0.375042
lclavicle -2.46493e-014 1.35174e-014
lhumerus -63.6835 -0.776485 96.7083
lradius 98.1972
lwrist 13.4179
lhand -8.34073 -7.74582
lfingers 7.12502
lthumb 17.581 21.4793
rfemur -9.99706 9.08214 26.3151
rtibia 43.1819
rfoot -25.7783 2.11452
rtoes -24.579
lfemur -11.2578 7.02298 -9.8252
ltibia 104.334
lfoot -4.23768 -4.12421
ltoes -0.194849
